<svg width="57" height="67" viewBox="0 0 57 67" fill="none" xmlns="http://www.w3.org/2000/svg">
<path d="M15.6934 -0.000976562L40.6934 -0.000976563V66.999L28.1934 58.9334L15.6934 66.999L15.6934 -0.000976562Z" fill="white"/>
<mask id="mask0_18112_127024" style="mask-type:alpha" maskUnits="userSpaceOnUse" x="15" y="-1" width="26" height="68">
<path d="M15.6934 -0.000976562L40.6934 -0.000976563V66.999L28.1934 58.9334L15.6934 66.999L15.6934 -0.000976562Z" fill="white"/>
</mask>
<g mask="url(#mask0_18112_127024)">
<rect x="15.6934" y="-0.000976562" width="8.33333" height="67" fill="#E52E40"/>
<rect x="24.0273" y="-0.000976562" width="8.33333" height="67" fill="#F6F8FA"/>
<rect x="32.3604" y="-0.000976562" width="8.33333" height="67" fill="#0E6A8E"/>
</g>
<g filter="url(#filter0_i_18112_127024)">
<path d="M28.1938 55.159C42.8845 55.159 54.7938 43.2498 54.7938 28.559C54.7938 13.8682 42.8845 1.95898 28.1938 1.95898C13.503 1.95898 1.59375 13.8682 1.59375 28.559C1.59375 43.2498 13.503 55.159 28.1938 55.159Z" fill="#586069"/>
</g>
<g filter="url(#filter1_ii_18112_127024)">
<path d="M28.2052 54.3188C42.4321 54.3188 53.9652 42.7857 53.9652 28.5588C53.9652 14.332 42.4321 2.79883 28.2052 2.79883C13.9784 2.79883 2.44531 14.332 2.44531 28.5588C2.44531 42.7857 13.9784 54.3188 28.2052 54.3188Z" fill="url(#paint0_linear_18112_127024)"/>
</g>
<g filter="url(#filter2_f_18112_127024)">
<path d="M42.6593 28.554C42.5984 36.7396 35.881 43.3288 27.6524 43.2682C19.4237 43.2076 12.805 36.5203 12.8658 28.3347C12.9266 20.1492 19.644 13.56 27.8727 13.6206C36.1014 13.6812 42.7201 20.3685 42.6593 28.554Z" stroke="white" stroke-width="0.636361"/>
</g>
<g filter="url(#filter3_i_18112_127024)">
<path d="M27.5659 43.4479C35.8889 43.5092 42.6895 36.8435 42.7511 28.5554C42.8127 20.2673 36.112 13.5023 27.7889 13.441C19.4659 13.3798 12.6654 20.0454 12.6038 28.3335C12.5422 36.6216 19.2429 43.3866 27.5659 43.4479Z" stroke="#586069" stroke-width="0.8512"/>
</g>
<g filter="url(#filter4_i_18112_127024)">
<path d="M12.5747 39.1269L11.6137 40.1653C11.2868 40.5185 11.2225 41.0397 11.4538 41.461L12.1339 42.6999L11.0905 41.7435C10.7356 41.4183 10.2119 41.3543 9.78855 41.5844L8.54369 42.2612L9.50468 41.2228C9.83152 40.8697 9.89582 40.3485 9.66454 39.9271L8.98451 38.6882L10.0279 39.6446C10.3827 39.9699 10.9064 40.0339 11.3298 39.8037L12.5747 39.1269Z" fill="#586069"/>
</g>
<g filter="url(#filter5_i_18112_127024)">
<path d="M44.0464 38.2363L45.2912 38.9131C45.7146 39.1433 46.2383 39.0793 46.5931 38.754L47.6365 37.7976L46.9565 39.0365C46.7252 39.4579 46.7895 39.9791 47.1163 40.3322L48.0773 41.3706L46.8325 40.6938C46.4091 40.4637 45.8854 40.5277 45.5305 40.8529L44.4872 41.8093L45.1672 40.5704C45.3985 40.1491 45.3342 39.6279 45.0073 39.2747L44.0464 38.2363Z" fill="#586069"/>
</g>
<g filter="url(#filter6_i_18112_127024)">
<path d="M20.0726 47.5415C19.9479 47.7959 19.7732 47.9845 19.5485 48.1074C19.3258 48.2312 19.0685 48.2857 18.7764 48.2708C18.4844 48.2559 18.1739 48.1686 17.8449 48.0088C17.6269 47.9029 17.4389 47.7835 17.2808 47.6505C17.1228 47.5176 16.9966 47.377 16.9025 47.2287L17.0747 46.9826C17.1228 47.0646 17.1803 47.1426 17.2471 47.2166C17.3139 47.2905 17.3899 47.358 17.4753 47.419C17.5607 47.48 17.654 47.5351 17.755 47.5842C17.9393 47.6737 18.1207 47.7166 18.2992 47.713C18.4786 47.7073 18.6442 47.6522 18.7961 47.5477C18.9489 47.4413 19.0761 47.2845 19.1777 47.0774C19.2956 46.8368 19.3496 46.6042 19.3396 46.3795C19.3315 46.1558 19.263 45.9528 19.134 45.7705C19.008 45.5872 18.8271 45.4383 18.5912 45.3237L18.3594 45.2111L16.72 48.5539C16.6987 48.5973 16.6922 48.6405 16.7006 48.6836C16.7098 48.7248 16.7378 48.7628 16.7845 48.7977L17.0257 48.9588C17.0733 48.9917 17.1018 49.0263 17.111 49.0625C17.1212 49.0968 17.1152 49.1366 17.0929 49.1819C17.0726 49.2233 17.0413 49.2496 16.999 49.2608C16.9567 49.272 16.9039 49.2622 16.8404 49.2314L15.2888 48.4778C15.2274 48.4479 15.1881 48.413 15.171 48.3729C15.1538 48.3328 15.1554 48.2921 15.1757 48.2506C15.2125 48.1757 15.2802 48.1451 15.379 48.1589L15.5628 48.2043C15.6201 48.2125 15.6674 48.2087 15.7047 48.1926C15.744 48.1775 15.7743 48.1483 15.7956 48.1049L17.3363 44.9633C17.3576 44.9199 17.3621 44.8781 17.3499 44.838C17.3397 44.7988 17.3136 44.7593 17.2718 44.7195L17.1228 44.6031C17.0511 44.5341 17.0337 44.4622 17.0704 44.3872C17.0917 44.3438 17.123 44.3175 17.1643 44.3083C17.2066 44.2971 17.2585 44.3064 17.3199 44.3363L18.7616 45.0365C19.1955 45.2473 19.5332 45.4919 19.7745 45.7703C20.0168 46.0467 20.1621 46.3383 20.2105 46.6451C20.2617 46.9508 20.2158 47.2496 20.0726 47.5415Z" fill="#586069"/>
<path d="M23.4491 49.4733C23.4194 49.588 23.3632 49.6688 23.2805 49.7156C23.2005 49.7608 23.0975 49.7673 22.9715 49.735L20.9727 49.2229L21.0371 48.9743L22.3503 49.3107C22.4593 49.3386 22.5264 49.3037 22.5516 49.206C22.6242 48.9254 22.6277 48.7008 22.562 48.5322C22.4969 48.3614 22.3778 48.2539 22.2048 48.2095C22.0725 48.1756 21.9446 48.1859 21.8212 48.2404C21.6983 48.2928 21.5875 48.3868 21.4887 48.5223C21.3925 48.6563 21.3173 48.8285 21.2628 49.0389C21.1562 49.4512 21.1734 49.7853 21.3144 50.0413C21.4559 50.2951 21.6868 50.463 22.0072 50.5451C22.1951 50.5932 22.3702 50.5984 22.5325 50.5607C22.6948 50.523 22.8331 50.4462 22.9473 50.3304C22.9967 50.2978 23.0351 50.277 23.0624 50.2682C23.0898 50.2593 23.1152 50.2579 23.1387 50.2639C23.1728 50.2727 23.1933 50.2949 23.2 50.3306C23.2094 50.3647 23.2072 50.4038 23.1935 50.4479C23.1388 50.6242 23.0319 50.7736 22.8727 50.896C22.7141 51.0162 22.5215 51.0961 22.295 51.1355C22.0691 51.1728 21.8237 51.1575 21.5589 51.0896C21.2493 51.0103 20.9911 50.8773 20.7843 50.6907C20.5782 50.5019 20.4361 50.2763 20.3583 50.0139C20.281 49.7493 20.2819 49.464 20.3611 49.158C20.4447 48.835 20.5827 48.5655 20.7751 48.3497C20.9697 48.1344 21.2058 47.9876 21.4833 47.9091C21.7636 47.8291 22.0714 47.832 22.4066 47.9179C22.6928 47.9913 22.9238 48.106 23.0998 48.2621C23.2762 48.4161 23.3932 48.5978 23.4505 48.8074C23.5106 49.0154 23.5101 49.2374 23.4491 49.4733Z" fill="#586069"/>
<path d="M27.3255 49.8774C27.3164 49.9956 27.2753 50.0849 27.2021 50.1454C27.1312 50.2038 27.0309 50.2281 26.9012 50.2182L24.8433 50.0614L24.863 49.8054L26.2151 49.9084C26.3273 49.917 26.3872 49.8709 26.3949 49.7702C26.4172 49.4814 26.3811 49.2597 26.2869 49.105C26.1928 48.9482 26.0567 48.863 25.8786 48.8494C25.7423 48.8391 25.6182 48.8714 25.5062 48.9465C25.3945 49.0195 25.3018 49.1313 25.2283 49.2819C25.1572 49.4306 25.1133 49.6132 25.0966 49.8298C25.064 50.2543 25.1395 50.5803 25.3233 50.8078C25.5072 51.0331 25.7641 51.1583 26.0939 51.1834C26.2874 51.1982 26.4607 51.1728 26.6139 51.1075C26.7671 51.0421 26.8897 50.9425 26.9819 50.8087C27.0248 50.7679 27.059 50.7408 27.0843 50.7273C27.1097 50.7139 27.1345 50.708 27.1586 50.7099C27.1938 50.7126 27.2178 50.7309 27.2307 50.7649C27.2459 50.7969 27.2507 50.8357 27.245 50.8815C27.222 51.0647 27.1429 51.2303 27.0077 51.3785C26.8726 51.5245 26.6971 51.6365 26.4809 51.7147C26.265 51.7907 26.0207 51.8183 25.7481 51.7976C25.4293 51.7733 25.1517 51.6872 24.9154 51.5393C24.6793 51.3893 24.4998 51.1919 24.3771 50.947C24.2546 50.7 24.2054 50.4189 24.2297 50.1038C24.2552 49.7712 24.3438 49.482 24.4954 49.236C24.6492 48.9902 24.8559 48.8046 25.1155 48.6791C25.3774 48.5516 25.6809 48.501 26.0261 48.5272C26.3207 48.5497 26.5684 48.6225 26.769 48.7456C26.9698 48.8665 27.1168 49.0252 27.2101 49.2216C27.3057 49.4159 27.3442 49.6346 27.3255 49.8774Z" fill="#586069"/>
<path d="M29.3624 49.9904C29.335 49.6711 29.3572 49.4006 29.4289 49.1786C29.5026 48.9543 29.6085 48.7823 29.7465 48.6627C29.8843 48.5409 30.0378 48.4728 30.207 48.4584C30.4179 48.4405 30.5857 48.4868 30.7102 48.5974C30.8346 48.7057 30.9064 48.8714 30.9255 49.0945C30.9422 49.2891 30.9141 49.439 30.8412 49.5443C30.7682 49.6474 30.6669 49.7045 30.5372 49.7155C30.4054 49.7267 30.3013 49.7003 30.225 49.6363C30.1509 49.5721 30.1085 49.4777 30.0978 49.3531L30.0874 49.2317C30.0816 49.1639 30.0608 49.115 30.0251 49.085C29.9913 49.0527 29.9404 49.0394 29.8723 49.0452C29.7932 49.0519 29.7201 49.09 29.653 49.1596C29.588 49.2268 29.539 49.3267 29.5061 49.4595C29.4732 49.5922 29.4654 49.7592 29.4827 49.9603L29.3624 49.9904ZM29.3237 48.7647L29.443 49.4979L29.5879 51.187C29.5931 51.2482 29.6091 51.2931 29.6359 51.3217C29.6625 51.348 29.7104 51.3638 29.7794 51.369L30.0635 51.3911C30.117 51.3953 30.1568 51.4085 30.183 51.4305C30.2115 51.4523 30.2275 51.484 30.231 51.5255C30.2348 51.5692 30.2213 51.6056 30.1906 51.6347C30.1619 51.6613 30.1168 51.6773 30.0553 51.6825L28.5162 51.8132C28.4525 51.8186 28.4053 51.8105 28.3747 51.7889C28.3439 51.7651 28.3267 51.7324 28.3232 51.6909C28.3203 51.6581 28.3278 51.6288 28.3455 51.6031C28.3632 51.5773 28.3924 51.5561 28.433 51.5395L28.5584 51.4925C28.5969 51.476 28.6246 51.4516 28.6418 51.4193C28.6588 51.3849 28.6643 51.3337 28.6585 51.2659L28.4987 49.403C28.4939 49.3461 28.4816 49.3064 28.462 49.2839C28.4423 49.2613 28.4125 49.2484 28.3724 49.2452L28.1996 49.2434C28.1571 49.2382 28.1262 49.2265 28.1069 49.2083C28.0877 49.1901 28.0767 49.1657 28.0741 49.1351C28.0709 49.0979 28.0794 49.0675 28.0995 49.0438C28.1216 49.0177 28.1602 48.9912 28.2155 48.9645L28.7901 48.6977C28.8964 48.6468 28.9743 48.6127 29.0237 48.5952C29.0753 48.5776 29.1154 48.5676 29.1439 48.5652C29.1923 48.5611 29.2299 48.5744 29.2569 48.6052C29.2861 48.6357 29.3084 48.6889 29.3237 48.7647Z" fill="#586069"/>
<path d="M32.3115 46.5751L33.1904 50.6294C33.2049 50.6959 33.2242 50.7434 33.2484 50.7719C33.2743 50.7978 33.3081 50.813 33.3496 50.8175L33.4795 50.8233C33.5237 50.8295 33.5581 50.8423 33.5826 50.8618C33.6088 50.8786 33.6256 50.9042 33.633 50.9385C33.6419 50.9793 33.634 51.0157 33.6094 51.048C33.5865 51.0776 33.5438 51.0991 33.4813 51.1125L32.2074 51.3861C32.1449 51.3995 32.0971 51.3974 32.0639 51.3798C32.0303 51.3601 32.0091 51.3298 32.0003 51.2891C31.9933 51.2569 31.997 51.2269 32.0112 51.1992C32.0255 51.1714 32.0517 51.1467 32.0899 51.125L32.2083 51.0626C32.2443 51.0414 32.2688 51.0137 32.2817 50.9795C32.2941 50.9431 32.2931 50.8917 32.2787 50.8252L31.5183 47.3179C31.5062 47.2621 31.489 47.2243 31.4667 47.2044C31.4438 47.1823 31.4134 47.172 31.3754 47.1735L31.2012 47.1974C31.1605 47.1972 31.1284 47.1895 31.1048 47.1743C31.0834 47.1587 31.0692 47.1348 31.0622 47.1026C31.0548 47.0683 31.0595 47.0381 31.0764 47.012C31.0929 46.9838 31.1279 46.9527 31.1814 46.9188L31.7321 46.5715C31.8092 46.5213 31.8711 46.4844 31.9179 46.4609C31.9669 46.4369 32.0097 46.421 32.0463 46.4132C32.1196 46.3974 32.1787 46.4049 32.2237 46.4357C32.2688 46.4664 32.298 46.5129 32.3115 46.5751Z" fill="#586069"/>
<path d="M34.6806 47.6686L35.4287 49.9879C35.4496 50.0527 35.4735 50.098 35.5005 50.124C35.5288 50.1472 35.5639 50.1591 35.6057 50.1595L35.7355 50.1526C35.7801 50.1545 35.8156 50.1639 35.8419 50.1809C35.8696 50.1951 35.8889 50.2189 35.8996 50.2523C35.9125 50.292 35.9082 50.3291 35.8869 50.3636C35.867 50.3953 35.8266 50.4208 35.7657 50.4403L34.5249 50.8367C34.464 50.8562 34.4162 50.8588 34.3815 50.8445C34.3462 50.8282 34.3221 50.8001 34.3093 50.7604C34.2991 50.7291 34.2998 50.6989 34.3113 50.6699C34.3228 50.6409 34.3465 50.6137 34.3823 50.5884L34.494 50.5147C34.5278 50.4901 34.5494 50.4602 34.5588 50.4249C34.5676 50.3875 34.5615 50.3364 34.5407 50.2716L33.9644 48.4851C33.9468 48.4308 33.926 48.3948 33.9018 48.3772C33.8769 48.3575 33.8445 48.3506 33.8047 48.3564L33.6369 48.3962C33.5943 48.4005 33.5616 48.396 33.5387 48.3826C33.5159 48.3691 33.4994 48.3468 33.4893 48.3154C33.4785 48.282 33.4802 48.2515 33.4945 48.2239C33.5081 48.1942 33.5398 48.1598 33.5898 48.1208L34.1036 47.7215C34.1754 47.664 34.2334 47.6213 34.2777 47.5933C34.324 47.5647 34.365 47.5447 34.4007 47.5333C34.4721 47.5105 34.5317 47.5122 34.5795 47.5384C34.6274 47.5646 34.661 47.608 34.6806 47.6686ZM33.9437 47.1503C33.7757 47.204 33.6265 47.2044 33.496 47.1516C33.3669 47.0961 33.2798 46.9983 33.2346 46.8583C33.1895 46.7183 33.2038 46.5904 33.2776 46.4746C33.3528 46.3561 33.4745 46.27 33.6424 46.2163C33.8125 46.162 33.9628 46.1612 34.0933 46.214C34.2231 46.2648 34.3106 46.3601 34.3558 46.5001C34.4009 46.6401 34.3862 46.7704 34.3117 46.891C34.2364 47.0096 34.1138 47.096 33.9437 47.1503Z" fill="#586069"/>
<path d="M36.6569 46.9557C36.5189 47.0195 36.4271 47.1042 36.3817 47.2099C36.3372 47.3127 36.3396 47.4169 36.3889 47.5224C36.4186 47.586 36.46 47.6383 36.5131 47.6791C36.5681 47.719 36.6469 47.7418 36.7493 47.7477C36.8518 47.7536 36.9903 47.738 37.165 47.7008C37.5047 47.6212 37.7809 47.5903 37.9935 47.6082C38.208 47.6252 38.3776 47.6811 38.5021 47.776C38.6257 47.8689 38.7237 47.9929 38.7961 48.1482C38.9252 48.4248 38.9293 48.6915 38.8085 48.9482C38.6886 49.202 38.4407 49.4158 38.0647 49.5896C37.9328 49.6506 37.8182 49.689 37.721 49.7049C37.6268 49.7218 37.5476 49.7318 37.4834 49.7349C37.4192 49.738 37.3661 49.7492 37.3241 49.7686C37.2821 49.788 37.2532 49.8147 37.2374 49.8486C37.2216 49.8825 37.2069 49.916 37.1931 49.949C37.1802 49.9839 37.1538 50.0107 37.1138 50.0291C37.0778 50.0458 37.0447 50.0478 37.0145 50.0351C36.9872 50.0235 36.9535 49.9956 36.9133 49.9512L36.4381 49.4486C36.3806 49.3881 36.3467 49.3336 36.3363 49.2852C36.3249 49.2348 36.337 49.1905 36.3727 49.1522C36.4103 49.113 36.4503 49.0945 36.4927 49.0967C36.5361 49.096 36.584 49.1126 36.6363 49.1465C36.7978 49.2582 36.9504 49.3377 37.094 49.385C37.2387 49.4294 37.3768 49.4466 37.5083 49.4367C37.6418 49.4258 37.7686 49.3926 37.8886 49.3371C38.0606 49.2576 38.1723 49.1636 38.2238 49.0551C38.2773 48.9457 38.2771 48.8333 38.2232 48.7179C38.1907 48.6482 38.1434 48.5938 38.0814 48.5547C38.0194 48.5157 37.9283 48.4949 37.808 48.4924C37.6877 48.4899 37.5248 48.5108 37.3193 48.555C37.0333 48.6194 36.7929 48.6434 36.598 48.627C36.4052 48.6097 36.2455 48.5541 36.119 48.4601C35.9935 48.3632 35.8923 48.2322 35.8152 48.067C35.7344 47.8938 35.7088 47.7218 35.7384 47.5508C35.7671 47.3778 35.8447 47.2186 35.9713 47.073C36.0969 46.9254 36.2657 46.8026 36.4777 46.7046C36.6137 46.6417 36.7283 46.6033 36.8214 46.5893C36.9165 46.5743 36.9961 46.5678 37.0602 46.5696C37.1234 46.5695 37.1779 46.5588 37.2239 46.5375C37.2719 46.5153 37.3043 46.4858 37.3212 46.449C37.3371 46.4102 37.3525 46.3728 37.3674 46.3369C37.3822 46.301 37.4086 46.2743 37.4466 46.2567C37.4766 46.2429 37.5067 46.2423 37.537 46.2549C37.5692 46.2666 37.6024 46.2961 37.6365 46.3432L38.0482 46.8425C38.0986 46.9087 38.13 46.9656 38.1424 47.0131C38.1539 47.0586 38.1409 47.1009 38.1032 47.1401C38.0656 47.1793 38.0247 47.1957 37.9804 47.1896C37.9362 47.1834 37.8831 47.1608 37.8211 47.1217C37.6007 46.9671 37.391 46.8825 37.1921 46.868C36.9953 46.8525 36.8169 46.8817 36.6569 46.9557Z" fill="#586069"/>
<path d="M38.5404 46.1229L38.3892 46.1688C38.3333 46.1837 38.2901 46.1879 38.2596 46.1813C38.2298 46.1717 38.2059 46.153 38.1881 46.1253C38.1642 46.0884 38.1584 46.053 38.1706 46.0191C38.1834 45.9822 38.2112 45.9501 38.2538 45.9228L38.4235 45.8142C38.4681 45.7857 38.4998 45.7537 38.5187 45.7181C38.5395 45.6813 38.5514 45.6306 38.5543 45.5662L38.5801 44.9548C38.5869 44.8801 38.6007 44.8203 38.6216 44.7756C38.6444 44.7297 38.6744 44.6949 38.7115 44.6712C38.7504 44.6463 38.7894 44.6396 38.8283 44.6512C38.8661 44.661 38.8999 44.6889 38.9297 44.7351L40.459 47.1025C40.5425 47.2317 40.6313 47.3144 40.7256 47.3507C40.8198 47.3869 40.9132 47.3754 41.006 47.316C41.0746 47.2721 41.1185 47.2245 41.1377 47.173C41.1588 47.1204 41.1691 47.0695 41.1687 47.0201C41.1683 46.9708 41.17 46.9267 41.1737 46.8878C41.178 46.8459 41.1969 46.8142 41.2303 46.7929C41.2581 46.7751 41.2863 46.7701 41.315 46.7779C41.3436 46.7856 41.3722 46.8117 41.4008 46.856C41.4669 46.9624 41.4949 47.0828 41.4847 47.2171C41.4764 47.3503 41.4295 47.4847 41.344 47.6202C41.2592 47.7527 41.1399 47.8682 40.9859 47.9667C40.7485 48.1186 40.5239 48.1788 40.3122 48.1473C40.0993 48.114 39.9147 47.9764 39.7585 47.7346L38.7747 46.2117C38.7437 46.1637 38.7103 46.1343 38.6744 46.1233C38.6403 46.1112 38.5957 46.1111 38.5404 46.1229ZM39.1422 45.7457L38.9633 45.4688L39.887 44.8778C39.9315 44.8493 39.9718 44.8366 40.0078 44.8396C40.0426 44.8408 40.0708 44.858 40.0923 44.8913C40.1245 44.9411 40.1272 44.9981 40.1004 45.0621C40.0737 45.1262 40.0056 45.1933 39.8961 45.2633L39.1422 45.7457Z" fill="#586069"/>
</g>
<g filter="url(#filter7_i_18112_127024)">
<path d="M10.7432 33.681L6.65124 34.6632L6.2601 33.0462C6.19992 32.8007 6.1939 32.5611 6.24806 32.3455C6.30222 32.1239 6.40452 31.9383 6.55496 31.7826C6.71142 31.6269 6.91602 31.5191 7.16876 31.4592L7.24699 31.4412C7.49973 31.3813 7.73441 31.3873 7.94503 31.4592C8.15565 31.5311 8.33618 31.6508 8.4806 31.8185C8.62502 31.9922 8.72732 32.1958 8.7875 32.4414L9.0282 33.4295L10.5988 33.0522L10.7492 33.681H10.7432ZM8.44449 33.5672L8.22184 32.639C8.16768 32.4174 8.06538 32.2557 7.91494 32.1539C7.7645 32.0521 7.58999 32.0221 7.38539 32.07L7.32522 32.082C7.12062 32.1299 6.97018 32.2377 6.88593 32.3934C6.80168 32.5492 6.78363 32.7468 6.83779 32.9684L7.06044 33.8906L8.43246 33.5613L8.44449 33.5672Z" fill="#586069"/>
</g>
<g filter="url(#filter8_i_18112_127024)">
<path d="M9.94945 29.9266L5.73712 29.9984L5.70703 28.2377C5.70703 27.9802 5.74314 27.7466 5.8334 27.549C5.91765 27.3514 6.05004 27.1957 6.21251 27.0819C6.381 26.9681 6.57959 26.9082 6.81427 26.9082H6.88047C7.14524 26.9082 7.35586 26.9621 7.51834 27.0879C7.68081 27.2136 7.79515 27.3633 7.86134 27.543H7.95762C7.95762 27.3873 8.01178 27.2675 8.10204 27.1717C8.19231 27.0759 8.33071 27.028 8.50523 27.028L9.90131 27.004L9.91335 27.6568L8.60752 27.6808C8.49921 27.6808 8.41496 27.7107 8.34877 27.7706C8.28257 27.8245 8.25248 27.9203 8.2585 28.0401L8.28257 29.3157L9.94344 29.2858L9.95547 29.9325L9.94945 29.9266ZM7.68683 29.3157L7.66878 28.2736C7.66878 28.0401 7.60258 27.8664 7.48223 27.7406C7.36188 27.6149 7.1994 27.555 6.9948 27.555H6.94666C6.74206 27.555 6.57959 27.6269 6.46525 27.7526C6.35092 27.8784 6.29074 28.064 6.29676 28.2976L6.31481 29.3397L7.68683 29.3157Z" fill="#586069"/>
</g>
<g filter="url(#filter9_i_18112_127024)">
<path d="M10.4127 24.3809C10.3044 24.884 10.0757 25.2553 9.72669 25.4889C9.37767 25.7224 8.93839 25.7823 8.3968 25.6685L7.43398 25.4649C6.89841 25.3511 6.5193 25.1116 6.29665 24.7582C6.074 24.3989 6.01984 23.9677 6.12816 23.4646C6.23647 22.9616 6.46514 22.5903 6.81417 22.3507C7.16319 22.1112 7.60849 22.0513 8.14406 22.1651L9.10688 22.3687C9.64245 22.4825 10.0216 22.722 10.2442 23.0814C10.4669 23.4407 10.521 23.8719 10.4127 24.3749V24.3809ZM9.84103 24.2552C9.91324 23.9318 9.87112 23.6623 9.71466 23.4467C9.56422 23.2311 9.32351 23.0874 8.99254 23.0155L7.98158 22.7999C7.65061 22.728 7.3738 22.764 7.14513 22.8957C6.91646 23.0275 6.76602 23.261 6.69983 23.5844C6.63364 23.9018 6.67576 24.1653 6.8262 24.3869C6.97664 24.6085 7.21735 24.7522 7.54832 24.8241L8.55927 25.0397C8.89024 25.1116 9.16705 25.0756 9.39572 24.9379C9.62439 24.8001 9.77483 24.5726 9.84103 24.2552Z" fill="#586069"/>
</g>
<g filter="url(#filter10_i_18112_127024)">
<path d="M11.6102 20.7514C11.4296 21.1287 11.1829 21.3862 10.864 21.5119C10.5451 21.6377 10.19 21.6078 9.80488 21.4281L9.47993 21.2784L9.75674 20.6915L10.0817 20.8412C10.2863 20.937 10.4728 20.955 10.6474 20.9011C10.8219 20.8472 10.9542 20.7154 11.0565 20.5058C11.1528 20.3022 11.1649 20.1225 11.0866 19.9728C11.0144 19.8171 10.87 19.6973 10.6654 19.5955L8.52915 18.6014L8.21623 19.2662L7.68066 19.0146L8.46295 17.3438L8.99852 17.5893L8.79994 18.0145L10.9362 19.0086C11.3334 19.1943 11.5861 19.4338 11.7004 19.7393C11.8148 20.0387 11.7847 20.3801 11.6042 20.7514H11.6102Z" fill="#586069"/>
</g>
<g filter="url(#filter11_i_18112_127024)">
<path d="M12.8023 18.3256L9.43848 15.8043L11.0331 13.6963L11.5025 14.0496L10.299 15.6426L11.2618 16.3673L12.3691 14.906L12.8384 15.2594L11.7312 16.7146L12.7181 17.4513L13.9397 15.8343L14.409 16.1876L12.7963 18.3196L12.8023 18.3256Z" fill="#586069"/>
</g>
<g filter="url(#filter12_i_18112_127024)">
<path d="M16.2915 14.5594C15.9004 14.8947 15.4972 15.0504 15.082 15.0265C14.6667 15.0025 14.2756 14.7809 13.9145 14.3677L13.2707 13.6251C12.9096 13.2119 12.7531 12.7987 12.7892 12.3794C12.8254 11.9662 13.042 11.5889 13.4331 11.2595C13.8183 10.9302 14.2034 10.7864 14.5945 10.8164C14.9857 10.8523 15.3407 11.0499 15.6597 11.4152L15.6837 11.4452L15.1963 11.8644L15.1602 11.8225C14.9736 11.6069 14.763 11.4811 14.5283 11.4452C14.2937 11.4093 14.0529 11.4931 13.8122 11.7027C13.5715 11.9123 13.4452 12.1459 13.4331 12.4094C13.4211 12.6729 13.5294 12.9364 13.7581 13.1939L14.42 13.9545C14.6427 14.212 14.8834 14.3557 15.1542 14.3857C15.4189 14.4156 15.6717 14.3258 15.9184 14.1162C16.1591 13.9126 16.2795 13.691 16.2734 13.4514C16.2734 13.2119 16.1772 12.9903 15.9966 12.7747L15.9304 12.6968L16.4179 12.2776L16.472 12.3435C16.791 12.7088 16.9354 13.0861 16.9113 13.4754C16.8872 13.8647 16.6826 14.224 16.2975 14.5534L16.2915 14.5594Z" fill="#586069"/>
</g>
<g filter="url(#filter13_i_18112_127024)">
<path d="M19.0663 12.5165L17.3332 9.34844L16.1959 9.96529L15.9131 9.45025L18.7534 7.91113L19.0362 8.42617L17.8989 9.04301L19.632 12.2111L19.0603 12.5225L19.0663 12.5165Z" fill="#586069"/>
</g>
<g filter="url(#filter14_i_18112_127024)">
<path d="M24.7713 10.5463C24.2598 10.6361 23.8325 10.5702 23.4775 10.3367C23.1225 10.1091 22.8998 9.71984 22.8035 9.18683L22.629 8.22264C22.5327 7.68365 22.6049 7.24646 22.8517 6.9051C23.0984 6.56374 23.4775 6.34815 23.989 6.25831C24.5005 6.16848 24.9277 6.23436 25.2828 6.46792C25.6378 6.6955 25.8605 7.08477 25.9628 7.61777L26.1373 8.58196C26.2336 9.12096 26.1614 9.55814 25.9086 9.8995C25.6559 10.2409 25.2768 10.4565 24.7713 10.5463ZM24.669 9.97137C24.9939 9.91148 25.2286 9.77373 25.3731 9.54616C25.5175 9.32458 25.5596 9.04909 25.4994 8.71971L25.3129 7.7076C25.2527 7.37822 25.1143 7.13268 24.9037 6.97697C24.6931 6.82126 24.4223 6.76736 24.0913 6.82725C23.7724 6.88714 23.5377 7.02488 23.3933 7.25245C23.2488 7.47404 23.2007 7.74952 23.2609 8.0849L23.4474 9.097C23.5076 9.42638 23.646 9.67193 23.8626 9.82763C24.0793 9.98334 24.344 10.0372 24.669 9.97735V9.97137Z" fill="#586069"/>
</g>
<g filter="url(#filter15_i_18112_127024)">
<path d="M27.4484 10.1452L27.6049 5.95898L30.2045 6.05481L30.1804 6.64171L28.2307 6.56984L28.1825 7.77958L29.9758 7.84545L29.9517 8.43236L28.1585 8.36648L28.0923 10.1751L27.4424 10.1511L27.4484 10.1452Z" fill="#586069"/>
</g>
<g filter="url(#filter16_i_18112_127024)">
<path d="M33.5685 11.0557L34.7479 7.64805L33.5264 7.22883L33.7189 6.67188L36.7819 7.71991L36.5893 8.27687L35.3678 7.85766L34.1883 11.2653L33.5745 11.0557H33.5685Z" fill="#586069"/>
</g>
<g filter="url(#filter17_i_18112_127024)">
<path d="M36.168 12.0555L38.3825 8.49219L38.9361 8.83355L37.9853 10.3607L39.4897 11.289L40.4405 9.76181L40.9941 10.1032L38.7796 13.6665L38.226 13.3251L39.1828 11.786L37.6784 10.8578L36.7216 12.3969L36.168 12.0555Z" fill="#586069"/>
</g>
<g filter="url(#filter18_i_18112_127024)">
<path d="M39.6465 14.3784L42.5771 11.3721L44.4847 13.2106L44.0755 13.6298L42.6372 12.2404L41.7948 13.1028L43.1126 14.3725L42.7034 14.7917L41.3856 13.5161L40.5251 14.3964L41.9873 15.8038L41.5781 16.223L39.6525 14.3605L39.6465 14.3784Z" fill="#586069"/>
</g>
<g filter="url(#filter19_i_18112_127024)">
<path d="M43.4619 18.7329L46.9943 16.3613L47.2771 16.9422L44.0938 19.0204L44.1359 19.1102L47.8187 18.0681L48.3121 19.0862L45.189 21.2961L45.2311 21.3799L48.8477 20.2061L49.1305 20.787L45.0626 22.0447L44.5692 21.0266L47.7344 18.7868L47.6923 18.7029L43.9554 19.763L43.4619 18.7389V18.7329Z" fill="#586069"/>
</g>
<g filter="url(#filter20_i_18112_127024)">
<path d="M45.459 23.4696L49.5931 22.6611L50.1046 25.2543L49.5269 25.3681L49.1418 23.4097L47.9563 23.6433L48.3113 25.4339L47.7336 25.5477L47.3786 23.7571L46.1691 23.9966L46.5602 25.9849L45.9825 26.0987L45.465 23.4756L45.459 23.4696Z" fill="#586069"/>
</g>
<g filter="url(#filter21_i_18112_127024)">
<path d="M46.0426 27.0333L50.255 27.0693L50.2309 29.7103H49.6412L49.6592 27.7101L48.4497 27.6981L48.4376 29.5247H47.8479L47.8599 27.6921L46.6263 27.6801L46.6083 29.7043H46.0186L46.0426 27.0273V27.0333Z" fill="#586069"/>
</g>
<g filter="url(#filter22_i_18112_127024)">
<path d="M45.9106 30.6321L50.0267 31.5304L49.8883 32.1592L48.1793 31.7879L48.1612 31.8838L49.5332 33.7822L49.3527 34.6087L47.734 32.3149L45.2246 33.7702L45.4112 32.9198L47.5053 31.734L47.5294 31.6382L45.7842 31.2549L45.9227 30.6201L45.9106 30.6321Z" fill="#586069"/>
</g>
<g filter="url(#filter23_i_18112_127024)">
<path d="M19.0522 35.043V31.3544H16.9141V29.4617H19.0522V27.1056H16.9141V25.213H19.0522V21.5243H21.0377V25.213H23.3285V21.5243H25.314V25.213H27.4521V27.1056H25.314V29.4617H27.4521V31.3544H25.314V35.043H23.3285V31.3544H21.0377V35.043H19.0522ZM21.0377 29.4617H23.3285V27.1056H21.0377V29.4617Z" fill="#586069"/>
<path d="M29.0899 35.043V33.4787C29.0899 32.526 29.2426 31.747 29.5481 31.1419C29.8663 30.5239 30.3181 30.0218 30.9035 29.6355C31.489 29.2364 32.2017 28.9081 33.0417 28.6506L34.2635 28.2643C34.7599 28.097 35.1799 27.8974 35.5235 27.6657C35.8671 27.4339 36.1344 27.1507 36.3253 26.8159C36.5162 26.4683 36.6117 26.0627 36.6117 25.5992V25.522C36.6117 24.8267 36.3762 24.2795 35.9053 23.8804C35.4344 23.4684 34.8044 23.2624 34.0153 23.2624C33.2262 23.2624 32.5835 23.4813 32.0872 23.919C31.5908 24.3439 31.3426 24.9748 31.3426 25.8117V26.14H29.1281V25.8503C29.1281 24.8718 29.3445 24.0413 29.7772 23.359C30.2099 22.6766 30.7953 22.1552 31.5335 21.7947C32.2717 21.4342 33.099 21.2539 34.0153 21.2539C34.9317 21.2539 35.7526 21.4342 36.478 21.7947C37.2162 22.1423 37.7889 22.6315 38.1962 23.2624C38.6162 23.8933 38.8262 24.6336 38.8262 25.4833V25.6765C38.8262 26.5391 38.6544 27.2665 38.3107 27.8588C37.9671 28.451 37.4898 28.9403 36.8789 29.3265C36.2807 29.6999 35.5998 30.0089 34.8362 30.2535L33.6526 30.6205C33.0799 30.8007 32.6217 30.9939 32.2781 31.1999C31.9472 31.4059 31.7117 31.644 31.5717 31.9144C31.4317 32.1719 31.3617 32.5002 31.3617 32.8994V33.0345H38.7116V35.043H29.0899Z" fill="#586069"/>
</g>
<defs>
<filter id="filter0_i_18112_127024" x="1.59375" y="1.95898" width="53.5045" height="53.5045" filterUnits="userSpaceOnUse" color-interpolation-filters="sRGB">
<feFlood flood-opacity="0" result="BackgroundImageFix"/>
<feBlend mode="normal" in="SourceGraphic" in2="BackgroundImageFix" result="shape"/>
<feColorMatrix in="SourceAlpha" type="matrix" values="0 0 0 0 0 0 0 0 0 0 0 0 0 0 0 0 0 0 127 0" result="hardAlpha"/>
<feOffset dx="0.304346" dy="0.304346"/>
<feGaussianBlur stdDeviation="0.304346"/>
<feComposite in2="hardAlpha" operator="arithmetic" k2="-1" k3="1"/>
<feColorMatrix type="matrix" values="0 0 0 0 0 0 0 0 0 0 0 0 0 0 0 0 0 0 0.2 0"/>
<feBlend mode="normal" in2="shape" result="effect1_innerShadow_18112_127024"/>
</filter>
<filter id="filter1_ii_18112_127024" x="1.22793" y="0.97275" width="53.9543" height="55.1717" filterUnits="userSpaceOnUse" color-interpolation-filters="sRGB">
<feFlood flood-opacity="0" result="BackgroundImageFix"/>
<feBlend mode="normal" in="SourceGraphic" in2="BackgroundImageFix" result="shape"/>
<feColorMatrix in="SourceAlpha" type="matrix" values="0 0 0 0 0 0 0 0 0 0 0 0 0 0 0 0 0 0 127 0" result="hardAlpha"/>
<feOffset dx="1.21739" dy="-1.82608"/>
<feGaussianBlur stdDeviation="1.21739"/>
<feComposite in2="hardAlpha" operator="arithmetic" k2="-1" k3="1"/>
<feColorMatrix type="matrix" values="0 0 0 0 1 0 0 0 0 1 0 0 0 0 1 0 0 0 0.55 0"/>
<feBlend mode="normal" in2="shape" result="effect1_innerShadow_18112_127024"/>
<feColorMatrix in="SourceAlpha" type="matrix" values="0 0 0 0 0 0 0 0 0 0 0 0 0 0 0 0 0 0 127 0" result="hardAlpha"/>
<feOffset dx="-1.21739" dy="1.82608"/>
<feGaussianBlur stdDeviation="1.21739"/>
<feComposite in2="hardAlpha" operator="arithmetic" k2="-1" k3="1"/>
<feColorMatrix type="matrix" values="0 0 0 0 1 0 0 0 0 1 0 0 0 0 1 0 0 0 0.55 0"/>
<feBlend mode="normal" in2="effect1_innerShadow_18112_127024" result="effect2_innerShadow_18112_127024"/>
</filter>
<filter id="filter2_f_18112_127024" x="9.59567" y="10.3506" width="36.3331" height="36.1876" filterUnits="userSpaceOnUse" color-interpolation-filters="sRGB">
<feFlood flood-opacity="0" result="BackgroundImageFix"/>
<feBlend mode="normal" in="SourceGraphic" in2="BackgroundImageFix" result="shape"/>
<feGaussianBlur stdDeviation="1.4756" result="effect1_foregroundBlur_18112_127024"/>
</filter>
<filter id="filter3_i_18112_127024" x="12.1777" y="13.0146" width="31.3034" height="31.1637" filterUnits="userSpaceOnUse" color-interpolation-filters="sRGB">
<feFlood flood-opacity="0" result="BackgroundImageFix"/>
<feBlend mode="normal" in="SourceGraphic" in2="BackgroundImageFix" result="shape"/>
<feColorMatrix in="SourceAlpha" type="matrix" values="0 0 0 0 0 0 0 0 0 0 0 0 0 0 0 0 0 0 127 0" result="hardAlpha"/>
<feOffset dx="0.304346" dy="0.304346"/>
<feGaussianBlur stdDeviation="0.304346"/>
<feComposite in2="hardAlpha" operator="arithmetic" k2="-1" k3="1"/>
<feColorMatrix type="matrix" values="0 0 0 0 0 0 0 0 0 0 0 0 0 0 0 0 0 0 0.2 0"/>
<feBlend mode="normal" in2="shape" result="effect1_innerShadow_18112_127024"/>
</filter>
<filter id="filter4_i_18112_127024" x="8.54395" y="38.6885" width="4.33462" height="4.31607" filterUnits="userSpaceOnUse" color-interpolation-filters="sRGB">
<feFlood flood-opacity="0" result="BackgroundImageFix"/>
<feBlend mode="normal" in="SourceGraphic" in2="BackgroundImageFix" result="shape"/>
<feColorMatrix in="SourceAlpha" type="matrix" values="0 0 0 0 0 0 0 0 0 0 0 0 0 0 0 0 0 0 127 0" result="hardAlpha"/>
<feOffset dx="0.304346" dy="0.304346"/>
<feGaussianBlur stdDeviation="0.304346"/>
<feComposite in2="hardAlpha" operator="arithmetic" k2="-1" k3="1"/>
<feColorMatrix type="matrix" values="0 0 0 0 0 0 0 0 0 0 0 0 0 0 0 0 0 0 0.2 0"/>
<feBlend mode="normal" in2="shape" result="effect1_innerShadow_18112_127024"/>
</filter>
<filter id="filter5_i_18112_127024" x="44.0459" y="37.7979" width="4.3356" height="4.31607" filterUnits="userSpaceOnUse" color-interpolation-filters="sRGB">
<feFlood flood-opacity="0" result="BackgroundImageFix"/>
<feBlend mode="normal" in="SourceGraphic" in2="BackgroundImageFix" result="shape"/>
<feColorMatrix in="SourceAlpha" type="matrix" values="0 0 0 0 0 0 0 0 0 0 0 0 0 0 0 0 0 0 127 0" result="hardAlpha"/>
<feOffset dx="0.304346" dy="0.304346"/>
<feGaussianBlur stdDeviation="0.304346"/>
<feComposite in2="hardAlpha" operator="arithmetic" k2="-1" k3="1"/>
<feColorMatrix type="matrix" values="0 0 0 0 0 0 0 0 0 0 0 0 0 0 0 0 0 0 0.2 0"/>
<feBlend mode="normal" in2="shape" result="effect1_innerShadow_18112_127024"/>
</filter>
<filter id="filter6_i_18112_127024" x="15.1592" y="44.3037" width="26.6315" height="7.81509" filterUnits="userSpaceOnUse" color-interpolation-filters="sRGB">
<feFlood flood-opacity="0" result="BackgroundImageFix"/>
<feBlend mode="normal" in="SourceGraphic" in2="BackgroundImageFix" result="shape"/>
<feColorMatrix in="SourceAlpha" type="matrix" values="0 0 0 0 0 0 0 0 0 0 0 0 0 0 0 0 0 0 127 0" result="hardAlpha"/>
<feOffset dx="0.304346" dy="0.304346"/>
<feGaussianBlur stdDeviation="0.304346"/>
<feComposite in2="hardAlpha" operator="arithmetic" k2="-1" k3="1"/>
<feColorMatrix type="matrix" values="0 0 0 0 0 0 0 0 0 0 0 0 0 0 0 0 0 0 0.2 0"/>
<feBlend mode="normal" in2="shape" result="effect1_innerShadow_18112_127024"/>
</filter>
<filter id="filter7_i_18112_127024" x="6.21094" y="31.4004" width="4.84243" height="3.56704" filterUnits="userSpaceOnUse" color-interpolation-filters="sRGB">
<feFlood flood-opacity="0" result="BackgroundImageFix"/>
<feBlend mode="normal" in="SourceGraphic" in2="BackgroundImageFix" result="shape"/>
<feColorMatrix in="SourceAlpha" type="matrix" values="0 0 0 0 0 0 0 0 0 0 0 0 0 0 0 0 0 0 127 0" result="hardAlpha"/>
<feOffset dx="0.304346" dy="0.304346"/>
<feGaussianBlur stdDeviation="0.304346"/>
<feComposite in2="hardAlpha" operator="arithmetic" k2="-1" k3="1"/>
<feColorMatrix type="matrix" values="0 0 0 0 0 0 0 0 0 0 0 0 0 0 0 0 0 0 0.2 0"/>
<feBlend mode="normal" in2="shape" result="effect1_innerShadow_18112_127024"/>
</filter>
<filter id="filter8_i_18112_127024" x="5.70703" y="26.9082" width="4.55239" height="3.39419" filterUnits="userSpaceOnUse" color-interpolation-filters="sRGB">
<feFlood flood-opacity="0" result="BackgroundImageFix"/>
<feBlend mode="normal" in="SourceGraphic" in2="BackgroundImageFix" result="shape"/>
<feColorMatrix in="SourceAlpha" type="matrix" values="0 0 0 0 0 0 0 0 0 0 0 0 0 0 0 0 0 0 127 0" result="hardAlpha"/>
<feOffset dx="0.304346" dy="0.304346"/>
<feGaussianBlur stdDeviation="0.304346"/>
<feComposite in2="hardAlpha" operator="arithmetic" k2="-1" k3="1"/>
<feColorMatrix type="matrix" values="0 0 0 0 0 0 0 0 0 0 0 0 0 0 0 0 0 0 0.2 0"/>
<feBlend mode="normal" in2="shape" result="effect1_innerShadow_18112_127024"/>
</filter>
<filter id="filter9_i_18112_127024" x="6.07422" y="22.1094" width="4.69692" height="3.91958" filterUnits="userSpaceOnUse" color-interpolation-filters="sRGB">
<feFlood flood-opacity="0" result="BackgroundImageFix"/>
<feBlend mode="normal" in="SourceGraphic" in2="BackgroundImageFix" result="shape"/>
<feColorMatrix in="SourceAlpha" type="matrix" values="0 0 0 0 0 0 0 0 0 0 0 0 0 0 0 0 0 0 127 0" result="hardAlpha"/>
<feOffset dx="0.304346" dy="0.304346"/>
<feGaussianBlur stdDeviation="0.304346"/>
<feComposite in2="hardAlpha" operator="arithmetic" k2="-1" k3="1"/>
<feColorMatrix type="matrix" values="0 0 0 0 0 0 0 0 0 0 0 0 0 0 0 0 0 0 0.2 0"/>
<feBlend mode="normal" in2="shape" result="effect1_innerShadow_18112_127024"/>
</filter>
<filter id="filter10_i_18112_127024" x="7.68066" y="17.3438" width="4.39126" height="4.54946" filterUnits="userSpaceOnUse" color-interpolation-filters="sRGB">
<feFlood flood-opacity="0" result="BackgroundImageFix"/>
<feBlend mode="normal" in="SourceGraphic" in2="BackgroundImageFix" result="shape"/>
<feColorMatrix in="SourceAlpha" type="matrix" values="0 0 0 0 0 0 0 0 0 0 0 0 0 0 0 0 0 0 127 0" result="hardAlpha"/>
<feOffset dx="0.304346" dy="0.304346"/>
<feGaussianBlur stdDeviation="0.304346"/>
<feComposite in2="hardAlpha" operator="arithmetic" k2="-1" k3="1"/>
<feColorMatrix type="matrix" values="0 0 0 0 0 0 0 0 0 0 0 0 0 0 0 0 0 0 0.2 0"/>
<feBlend mode="normal" in2="shape" result="effect1_innerShadow_18112_127024"/>
</filter>
<filter id="filter11_i_18112_127024" x="9.43848" y="13.6963" width="5.27505" height="4.93325" filterUnits="userSpaceOnUse" color-interpolation-filters="sRGB">
<feFlood flood-opacity="0" result="BackgroundImageFix"/>
<feBlend mode="normal" in="SourceGraphic" in2="BackgroundImageFix" result="shape"/>
<feColorMatrix in="SourceAlpha" type="matrix" values="0 0 0 0 0 0 0 0 0 0 0 0 0 0 0 0 0 0 127 0" result="hardAlpha"/>
<feOffset dx="0.304346" dy="0.304346"/>
<feGaussianBlur stdDeviation="0.304346"/>
<feComposite in2="hardAlpha" operator="arithmetic" k2="-1" k3="1"/>
<feColorMatrix type="matrix" values="0 0 0 0 0 0 0 0 0 0 0 0 0 0 0 0 0 0 0.2 0"/>
<feBlend mode="normal" in2="shape" result="effect1_innerShadow_18112_127024"/>
</filter>
<filter id="filter12_i_18112_127024" x="12.7842" y="10.8125" width="4.43423" height="4.52114" filterUnits="userSpaceOnUse" color-interpolation-filters="sRGB">
<feFlood flood-opacity="0" result="BackgroundImageFix"/>
<feBlend mode="normal" in="SourceGraphic" in2="BackgroundImageFix" result="shape"/>
<feColorMatrix in="SourceAlpha" type="matrix" values="0 0 0 0 0 0 0 0 0 0 0 0 0 0 0 0 0 0 127 0" result="hardAlpha"/>
<feOffset dx="0.304346" dy="0.304346"/>
<feGaussianBlur stdDeviation="0.304346"/>
<feComposite in2="hardAlpha" operator="arithmetic" k2="-1" k3="1"/>
<feColorMatrix type="matrix" values="0 0 0 0 0 0 0 0 0 0 0 0 0 0 0 0 0 0 0.2 0"/>
<feBlend mode="normal" in2="shape" result="effect1_innerShadow_18112_127024"/>
</filter>
<filter id="filter13_i_18112_127024" x="15.9131" y="7.91113" width="4.0231" height="4.91567" filterUnits="userSpaceOnUse" color-interpolation-filters="sRGB">
<feFlood flood-opacity="0" result="BackgroundImageFix"/>
<feBlend mode="normal" in="SourceGraphic" in2="BackgroundImageFix" result="shape"/>
<feColorMatrix in="SourceAlpha" type="matrix" values="0 0 0 0 0 0 0 0 0 0 0 0 0 0 0 0 0 0 127 0" result="hardAlpha"/>
<feOffset dx="0.304346" dy="0.304346"/>
<feGaussianBlur stdDeviation="0.304346"/>
<feComposite in2="hardAlpha" operator="arithmetic" k2="-1" k3="1"/>
<feColorMatrix type="matrix" values="0 0 0 0 0 0 0 0 0 0 0 0 0 0 0 0 0 0 0.2 0"/>
<feBlend mode="normal" in2="shape" result="effect1_innerShadow_18112_127024"/>
</filter>
<filter id="filter14_i_18112_127024" x="22.5879" y="6.21973" width="3.89517" height="4.66958" filterUnits="userSpaceOnUse" color-interpolation-filters="sRGB">
<feFlood flood-opacity="0" result="BackgroundImageFix"/>
<feBlend mode="normal" in="SourceGraphic" in2="BackgroundImageFix" result="shape"/>
<feColorMatrix in="SourceAlpha" type="matrix" values="0 0 0 0 0 0 0 0 0 0 0 0 0 0 0 0 0 0 127 0" result="hardAlpha"/>
<feOffset dx="0.304346" dy="0.304346"/>
<feGaussianBlur stdDeviation="0.304346"/>
<feComposite in2="hardAlpha" operator="arithmetic" k2="-1" k3="1"/>
<feColorMatrix type="matrix" values="0 0 0 0 0 0 0 0 0 0 0 0 0 0 0 0 0 0 0.2 0"/>
<feBlend mode="normal" in2="shape" result="effect1_innerShadow_18112_127024"/>
</filter>
<filter id="filter15_i_18112_127024" x="27.4424" y="5.95898" width="3.06607" height="4.52017" filterUnits="userSpaceOnUse" color-interpolation-filters="sRGB">
<feFlood flood-opacity="0" result="BackgroundImageFix"/>
<feBlend mode="normal" in="SourceGraphic" in2="BackgroundImageFix" result="shape"/>
<feColorMatrix in="SourceAlpha" type="matrix" values="0 0 0 0 0 0 0 0 0 0 0 0 0 0 0 0 0 0 127 0" result="hardAlpha"/>
<feOffset dx="0.304346" dy="0.304346"/>
<feGaussianBlur stdDeviation="0.304346"/>
<feComposite in2="hardAlpha" operator="arithmetic" k2="-1" k3="1"/>
<feColorMatrix type="matrix" values="0 0 0 0 0 0 0 0 0 0 0 0 0 0 0 0 0 0 0.2 0"/>
<feBlend mode="normal" in2="shape" result="effect1_innerShadow_18112_127024"/>
</filter>
<filter id="filter16_i_18112_127024" x="33.5264" y="6.67188" width="3.56021" height="4.8981" filterUnits="userSpaceOnUse" color-interpolation-filters="sRGB">
<feFlood flood-opacity="0" result="BackgroundImageFix"/>
<feBlend mode="normal" in="SourceGraphic" in2="BackgroundImageFix" result="shape"/>
<feColorMatrix in="SourceAlpha" type="matrix" values="0 0 0 0 0 0 0 0 0 0 0 0 0 0 0 0 0 0 127 0" result="hardAlpha"/>
<feOffset dx="0.304346" dy="0.304346"/>
<feGaussianBlur stdDeviation="0.304346"/>
<feComposite in2="hardAlpha" operator="arithmetic" k2="-1" k3="1"/>
<feColorMatrix type="matrix" values="0 0 0 0 0 0 0 0 0 0 0 0 0 0 0 0 0 0 0.2 0"/>
<feBlend mode="normal" in2="shape" result="effect1_innerShadow_18112_127024"/>
</filter>
<filter id="filter17_i_18112_127024" x="36.168" y="8.49219" width="5.13052" height="5.47915" filterUnits="userSpaceOnUse" color-interpolation-filters="sRGB">
<feFlood flood-opacity="0" result="BackgroundImageFix"/>
<feBlend mode="normal" in="SourceGraphic" in2="BackgroundImageFix" result="shape"/>
<feColorMatrix in="SourceAlpha" type="matrix" values="0 0 0 0 0 0 0 0 0 0 0 0 0 0 0 0 0 0 127 0" result="hardAlpha"/>
<feOffset dx="0.304346" dy="0.304346"/>
<feGaussianBlur stdDeviation="0.304346"/>
<feComposite in2="hardAlpha" operator="arithmetic" k2="-1" k3="1"/>
<feColorMatrix type="matrix" values="0 0 0 0 0 0 0 0 0 0 0 0 0 0 0 0 0 0 0.2 0"/>
<feBlend mode="normal" in2="shape" result="effect1_innerShadow_18112_127024"/>
</filter>
<filter id="filter18_i_18112_127024" x="39.6465" y="11.3721" width="5.14224" height="5.15493" filterUnits="userSpaceOnUse" color-interpolation-filters="sRGB">
<feFlood flood-opacity="0" result="BackgroundImageFix"/>
<feBlend mode="normal" in="SourceGraphic" in2="BackgroundImageFix" result="shape"/>
<feColorMatrix in="SourceAlpha" type="matrix" values="0 0 0 0 0 0 0 0 0 0 0 0 0 0 0 0 0 0 127 0" result="hardAlpha"/>
<feOffset dx="0.304346" dy="0.304346"/>
<feGaussianBlur stdDeviation="0.304346"/>
<feComposite in2="hardAlpha" operator="arithmetic" k2="-1" k3="1"/>
<feColorMatrix type="matrix" values="0 0 0 0 0 0 0 0 0 0 0 0 0 0 0 0 0 0 0.2 0"/>
<feBlend mode="normal" in2="shape" result="effect1_innerShadow_18112_127024"/>
</filter>
<filter id="filter19_i_18112_127024" x="43.4619" y="16.3613" width="5.97329" height="5.98794" filterUnits="userSpaceOnUse" color-interpolation-filters="sRGB">
<feFlood flood-opacity="0" result="BackgroundImageFix"/>
<feBlend mode="normal" in="SourceGraphic" in2="BackgroundImageFix" result="shape"/>
<feColorMatrix in="SourceAlpha" type="matrix" values="0 0 0 0 0 0 0 0 0 0 0 0 0 0 0 0 0 0 127 0" result="hardAlpha"/>
<feOffset dx="0.304346" dy="0.304346"/>
<feGaussianBlur stdDeviation="0.304346"/>
<feComposite in2="hardAlpha" operator="arithmetic" k2="-1" k3="1"/>
<feColorMatrix type="matrix" values="0 0 0 0 0 0 0 0 0 0 0 0 0 0 0 0 0 0 0.2 0"/>
<feBlend mode="normal" in2="shape" result="effect1_innerShadow_18112_127024"/>
</filter>
<filter id="filter20_i_18112_127024" x="45.459" y="22.6611" width="4.94985" height="3.74185" filterUnits="userSpaceOnUse" color-interpolation-filters="sRGB">
<feFlood flood-opacity="0" result="BackgroundImageFix"/>
<feBlend mode="normal" in="SourceGraphic" in2="BackgroundImageFix" result="shape"/>
<feColorMatrix in="SourceAlpha" type="matrix" values="0 0 0 0 0 0 0 0 0 0 0 0 0 0 0 0 0 0 127 0" result="hardAlpha"/>
<feOffset dx="0.304346" dy="0.304346"/>
<feGaussianBlur stdDeviation="0.304346"/>
<feComposite in2="hardAlpha" operator="arithmetic" k2="-1" k3="1"/>
<feColorMatrix type="matrix" values="0 0 0 0 0 0 0 0 0 0 0 0 0 0 0 0 0 0 0.2 0"/>
<feBlend mode="normal" in2="shape" result="effect1_innerShadow_18112_127024"/>
</filter>
<filter id="filter21_i_18112_127024" x="46.0186" y="27.0273" width="4.54067" height="2.98696" filterUnits="userSpaceOnUse" color-interpolation-filters="sRGB">
<feFlood flood-opacity="0" result="BackgroundImageFix"/>
<feBlend mode="normal" in="SourceGraphic" in2="BackgroundImageFix" result="shape"/>
<feColorMatrix in="SourceAlpha" type="matrix" values="0 0 0 0 0 0 0 0 0 0 0 0 0 0 0 0 0 0 127 0" result="hardAlpha"/>
<feOffset dx="0.304346" dy="0.304346"/>
<feGaussianBlur stdDeviation="0.304346"/>
<feComposite in2="hardAlpha" operator="arithmetic" k2="-1" k3="1"/>
<feColorMatrix type="matrix" values="0 0 0 0 0 0 0 0 0 0 0 0 0 0 0 0 0 0 0.2 0"/>
<feBlend mode="normal" in2="shape" result="effect1_innerShadow_18112_127024"/>
</filter>
<filter id="filter22_i_18112_127024" x="45.2246" y="30.6201" width="5.1061" height="4.29263" filterUnits="userSpaceOnUse" color-interpolation-filters="sRGB">
<feFlood flood-opacity="0" result="BackgroundImageFix"/>
<feBlend mode="normal" in="SourceGraphic" in2="BackgroundImageFix" result="shape"/>
<feColorMatrix in="SourceAlpha" type="matrix" values="0 0 0 0 0 0 0 0 0 0 0 0 0 0 0 0 0 0 127 0" result="hardAlpha"/>
<feOffset dx="0.304346" dy="0.304346"/>
<feGaussianBlur stdDeviation="0.304346"/>
<feComposite in2="hardAlpha" operator="arithmetic" k2="-1" k3="1"/>
<feColorMatrix type="matrix" values="0 0 0 0 0 0 0 0 0 0 0 0 0 0 0 0 0 0 0.2 0"/>
<feBlend mode="normal" in2="shape" result="effect1_innerShadow_18112_127024"/>
</filter>
<filter id="filter23_i_18112_127024" x="16.9141" y="21.2539" width="22.2165" height="14.0934" filterUnits="userSpaceOnUse" color-interpolation-filters="sRGB">
<feFlood flood-opacity="0" result="BackgroundImageFix"/>
<feBlend mode="normal" in="SourceGraphic" in2="BackgroundImageFix" result="shape"/>
<feColorMatrix in="SourceAlpha" type="matrix" values="0 0 0 0 0 0 0 0 0 0 0 0 0 0 0 0 0 0 127 0" result="hardAlpha"/>
<feOffset dx="0.304346" dy="0.304346"/>
<feGaussianBlur stdDeviation="0.304346"/>
<feComposite in2="hardAlpha" operator="arithmetic" k2="-1" k3="1"/>
<feColorMatrix type="matrix" values="0 0 0 0 0 0 0 0 0 0 0 0 0 0 0 0 0 0 0.2 0"/>
<feBlend mode="normal" in2="shape" result="effect1_innerShadow_18112_127024"/>
</filter>
<linearGradient id="paint0_linear_18112_127024" x1="11.2064" y1="-5.49132" x2="-4.95668" y2="61.5347" gradientUnits="userSpaceOnUse">
<stop stop-color="#FEDE6D"/>
<stop offset="0.0001" stop-color="#B9BEC1"/>
<stop offset="0.330437" stop-color="#E9EAEC"/>
<stop offset="0.642351" stop-color="#E4E5E7"/>
<stop offset="0.846429" stop-color="white"/>
</linearGradient>
</defs>
</svg>
